<?xml version="1.0" encoding="utf-8"?>
<svg version="1.1" id="Layer_1" xmlns="http://www.w3.org/2000/svg" x="0px" y="0px" viewBox="0 -0.84 240.845 243.327" enable-background="new 0 0 602.5347 253.8168" xmlns:bx="https://boxy-svg.com" width="240.845px" height="243.327px"><defs><bx:export><bx:file format="svg" href="#object-0"/><bx:file format="svg" path="Untitled 2.svg"/></bx:export></defs><g transform="matrix(1, 0, 0, 1, -346.163727, -6.713479)"><path fill="#ED1C24" d="M586.0313,130.9543c0.0449-1.3457,0.1035-2.6885,0.1035-4.0459c0-1.3565-0.0586-2.6992-0.1035-4.0459 c-16.2559-6.5801-17.2188-13.6299-3.2461-24.0889c-0.6055-2.5146-1.2598-5.0098-2.0195-7.46 c-17.373-1.7597-20.0645-8.1025-9.1581-21.6796c-1.2072-2.2178-2.5059-4.378-3.8457-6.5098 c-17.1368,2.8545-21.293-2.5147-14.174-18.3408c-1.7207-1.8311-3.4961-3.6075-5.3281-5.3272 c-15.8262,7.1182-21.1953,2.961-18.3398-14.1748c-2.1329-1.3398-4.293-2.6387-6.5118-3.8457 c-13.5761,10.9072-19.9199,8.2149-21.6796-9.1582c-2.4493-0.7598-4.9454-1.415-7.459-2.0195 c-10.459,13.9726-17.5078,13.0088-24.0899-3.2471c-1.3457-0.0449-2.6875-0.1025-4.0449-0.1025 c-1.3574,0-2.7012,0.0576-4.0469,0.1025c-6.58,16.2559-13.6308,17.2197-24.0879,3.2471c-2.5156,0.6045-5.0097,1.2597-7.4589,2.0195 c-1.7598,17.3731-8.1036,20.0654-21.6817,9.1572c-2.2187,1.208-4.3769,2.5059-6.5098,3.8467 c2.8555,17.1358-2.5156,21.293-18.3417,14.1738c-1.8301,1.7207-3.6055,3.4971-5.3262,5.3282 c7.1191,15.8261,2.9609,21.1953-14.1743,18.3408c-1.3409,2.1318-2.6397,4.292-3.8467,6.5098 c10.9072,13.5771,8.2158,19.9199-9.1572,21.6796c-0.7598,2.4502-1.4151,4.9454-2.0196,7.46 c13.9727,10.459,13.0088,17.5088-3.247,24.0889c-0.045,1.3467-0.1026,2.6894-0.1026,4.0459c0,1.3574,0.0576,2.7002,0.1026,4.0459 c16.2558,6.582,17.2197,13.6299,3.247,24.0888c0.6045,2.5147,1.2598,5.0098,2.0196,7.46 c17.373,1.7598,20.0644,8.1025,9.1572,21.6797c1.207,2.2187,2.5058,4.3789,3.8467,6.5107 c17.1352-2.8535,21.2934,2.5157,14.1743,18.3418c1.7207,1.8311,3.4961,3.6074,5.3281,5.3272 c15.8242-7.1192,21.1953-2.9619,18.3398,14.1738c2.1329,1.3398,4.2911,2.6387,6.5098,3.8457 c13.5781-10.9072,19.9199-8.2158,21.6797,9.1572c2.4512,0.7598,4.9453,1.4151,7.4609,2.0196 c10.459-13.9707,17.5059-13.0079,24.0879,3.247c1.3457,0.045,2.6895,0.1026,4.0469,0.1026c1.3574,0,2.6992-0.0576,4.0469-0.1026 c6.5801-16.2549,13.6289-17.2177,24.0859-3.247c2.5156-0.6045,5.0098-1.2598,7.461-2.0196 c1.7597-17.373,8.1035-20.0644,21.6796-9.1572c2.2188-1.207,4.3789-2.5059,6.5098-3.8457 c-2.8535-17.1367,2.5156-21.293,18.3418-14.1748c1.832-1.7197,3.6074-3.4961,5.3281-5.3272 c-7.1191-15.8251-2.9629-21.1943,14.174-18.3408c1.3398-2.1318,2.6385-4.292,3.8457-6.5107 c-10.9063-13.5772-8.2149-19.9199,9.1581-21.6797c0.7597-2.4502,1.414-4.9453,2.0195-7.46 C568.8125,144.5842,569.7754,137.5363,586.0313,130.9543z"/><g><g><linearGradient id="SVGID_1_" gradientUnits="userSpaceOnUse" x1="356.829" y1="78.2423" x2="575.4418" y2="175.575"><stop offset="0" style="stop-color: rgb(230, 0, 0);"/><stop offset="1" style="stop-color: rgb(102, 0, 0);"/></linearGradient><path fill="url(#SVGID_1_)" d="M586.0332,130.9543c0.045-1.3457,0.1016-2.6885,0.1016-4.0459 c0-1.3565-0.0566-2.6992-0.1016-4.0459c-16.2558-6.5801-17.2207-13.6299-3.248-24.0889c-0.6035-2.5146-1.2598-5.0098-2.0195-7.46 c-17.373-1.7597-20.0645-8.1025-9.1563-21.6796c-1.207-2.2178-2.5058-4.378-3.8476-6.5098 c-17.1348,2.8545-21.293-2.5147-14.174-18.3408c-1.7187-1.8311-3.4961-3.6075-5.326-5.3272 c-15.8262,7.1182-21.1973,2.961-18.3418-14.1748c-2.1309-1.3398-4.2911-2.6387-6.5098-3.8457 c-13.5781,10.9072-19.9219,8.2149-21.6816-9.1582c-2.4493-0.7598-4.9434-1.415-7.459-2.0195 c-10.4571,13.9726-17.5078,13.0088-24.0879-3.2471c-1.3457-0.0449-2.6895-0.1025-4.0469-0.1025 c-1.3574,0-2.6992,0.0576-4.0449,0.1025C455.5079,23.2668,448.459,24.2306,438,10.258 c-2.5136,0.6045-5.0097,1.2597-7.4589,2.0195c-1.7598,17.3731-8.1016,20.0654-21.6797,9.1572 c-2.2188,1.208-4.3789,2.5059-6.5098,3.8467c2.8535,17.1358-2.5156,21.293-18.3418,14.1738 c-1.832,1.7207-3.6074,3.4971-5.3281,5.3282c7.1191,15.8261,2.9629,21.1953-14.1743,18.3408 c-1.3399,2.1318-2.6387,4.292-3.8457,6.5098c10.9062,13.5771,8.2148,19.9199-9.1582,21.6796 c-0.7598,2.4502-1.4141,4.9454-2.0196,7.46c13.9727,10.459,13.0098,17.5088-3.2461,24.0889 c-0.0449,1.3467-0.1035,2.6894-0.1035,4.0459c0,1.3574,0.0586,2.7002,0.1035,4.0459 c16.2559,6.582,17.2188,13.6299,3.2461,24.0888c0.6055,2.5147,1.2598,5.0098,2.0196,7.46 c17.373,1.7598,20.0644,8.1025,9.1582,21.6797c1.207,2.2187,2.5058,4.3789,3.8457,6.5107 c17.1352-2.8535,21.2934,2.5157,14.1762,18.3418c1.7188,1.8311,3.4961,3.6074,5.3262,5.3272 c15.8262-7.1192,21.1953-2.9619,18.3418,14.1738c2.1309,1.3398,4.291,2.6387,6.5098,3.8457 c13.5761-10.9072,19.9199-8.2158,21.6797,9.1572c2.4511,0.7598,4.9453,1.4151,7.4609,2.0196 c10.457-13.9707,17.5059-13.0079,24.0859,3.247c1.3477,0.045,2.6895,0.1026,4.0469,0.1026c1.3574,0,2.7012-0.0576,4.0469-0.1026 c6.582-16.2549,13.6289-17.2177,24.0879-3.247c2.5156-0.6045,5.0097-1.2598,7.4609-2.0196 c1.7598-17.373,8.1016-20.0644,21.6797-9.1572c2.2187-1.207,4.3769-2.5059,6.5098-3.8457 c-2.8555-17.1367,2.5156-21.293,18.3418-14.1748c1.83-1.7197,3.6053-3.4961,5.326-5.3272 c-7.1191-15.8251-2.9609-21.1943,14.174-18.3408c1.3418-2.1318,2.6406-4.292,3.8476-6.5107 c-10.9082-13.5772-8.2168-19.9199,9.1563-21.6797c0.7597-2.4502,1.416-4.9453,2.0195-7.46 C568.8125,144.5842,569.7774,137.5363,586.0332,130.9543z"/><linearGradient id="SVGID_2_" gradientUnits="userSpaceOnUse" x1="356.829" y1="78.2423" x2="575.4418" y2="175.575"><stop offset="0" style="stop-color: rgb(128, 0, 0);"/><stop offset="1" style="stop-color: rgb(204, 0, 0);"/></linearGradient><path fill="url(#SVGID_2_)" d="M586.1348,126.9084c0-1.3565-0.0566-2.6992-0.1016-4.0459 c-2.5878-1.0479-4.7851-2.1075-6.5995-3.1905l-33.9824-3.206l30.291-11.2588c1.625-2.001,3.9727-4.1348,7.043-6.4336 c-0.6035-2.5146-1.2598-5.0098-2.0195-7.46c-2.2227-0.2251-4.2032-0.5268-5.9473-0.9082l-34.7734,5.8882l26.3514-18.7197 c1.0723-2.3154,2.8125-4.9522,5.213-7.9399c-1.207-2.2178-2.5058-4.378-3.8476-6.5098c-2.5529,0.4253-4.8106,0.6636-6.793,0.7163 l-31.3652,14.3672l21.1757-25.5874c0.5294-2.2525,1.4688-4.8594,2.8086-7.8369c-1.7187-1.8311-3.4961-3.6075-5.326-5.3272 c-2.9786,1.3399-5.586,2.2793-7.8399,2.8086L514.836,63.4401l14.3672-31.3667c0.0527-1.9819,0.291-4.2397,0.7169-6.792 c-2.1309-1.3398-4.2911-2.6387-6.5098-3.8457c-2.9883,2.4004-5.627,4.1406-7.9414,5.2124L496.75,52.9982l5.8868-34.7695 c-0.3809-1.7461-0.6817-3.7261-0.9082-5.9512c-2.4493-0.7598-4.9434-1.415-7.459-2.0195 c-2.2989,3.0718-4.4336,5.4204-6.4336,7.0444l-11.2598,30.2905l-3.2051-33.9848c-1.084-1.814-2.1425-4.0103-3.1894-6.5972 c-1.3457-0.0449-2.6895-0.1025-4.0469-0.1025c-1.3574,0-2.6992,0.0576-4.0449,0.1025c-1.0488,2.5869-2.1074,4.7832-3.1914,6.5972 l-3.2051,33.9848l-11.2598-30.2905c-2-1.624-4.1347-3.9726-6.4336-7.0444c-2.5136,0.6045-5.0097,1.2597-7.4589,2.0195 c-0.2247,2.2251-0.5274,4.2051-0.9082,5.9512l5.8867,34.7695l-18.7188-26.3511c-2.3144-1.0717-4.9531-2.812-7.9394-5.2124 c-2.2188,1.208-4.3789,2.5059-6.5098,3.8467c0.4238,2.5528,0.6621,4.8111,0.7148,6.7935l14.3672,31.3652l-25.5879-21.1758 c-2.2519-0.5298-4.8593-1.4692-7.8359-2.8091c-1.832,1.7207-3.6074,3.4971-5.3281,5.3282 c1.3398,2.9775,2.2793,5.584,2.8086,7.8359l21.1758,25.5879l-31.3638-14.3667c-1.9824-0.0527-4.2412-0.291-6.7949-0.7163 c-1.3399,2.1318-2.6387,4.292-3.8457,6.5098c2.4003,2.9877,4.1406,5.6245,5.2109,7.9399l26.352,18.7197l-34.7719-5.8882 c-1.7451,0.3814-3.7246,0.6831-5.9492,0.9082c-0.7598,2.4502-1.4141,4.9454-2.0196,7.46 c3.0723,2.2988,5.4199,4.4326,7.044,6.4336l30.2925,11.2588l-33.9849,3.206c-1.8145,1.083-4.0098,2.1426-6.5977,3.1905 c-0.0449,1.3467-0.1035,2.6894-0.1035,4.0459c0,1.3574,0.0586,2.7002,0.1035,4.0459c2.5869,1.0478,4.7832,2.1074,6.5967,3.1904 l33.9859,3.2061l-30.2916,11.2587c-1.625,2.001-3.9726,4.1348-7.0449,6.4336c0.6055,2.5147,1.2598,5.0098,2.0196,7.46 c2.2246,0.2256,4.2031,0.5264,5.9482,0.9082l34.7729-5.8887l-26.351,18.7198c-1.0713,2.3154-2.8116,4.9521-5.2119,7.9404 c1.207,2.2187,2.5058,4.3789,3.8457,6.5107c2.5527-0.4248,4.8105-0.6631,6.791-0.7158l31.3677-14.3682l-21.1739,25.587 c-0.5293,2.2529-1.4687,4.8603-2.8086,7.8388c1.7188,1.8311,3.4961,3.6074,5.3262,5.3272 c2.9766-1.3389,5.582-2.2783,7.834-2.8086l25.5898-21.1778l-14.3672,31.3643c-0.0527,1.9834-0.291,4.2422-0.7148,6.7959 c2.1309,1.3398,4.291,2.6387,6.5098,3.8457c2.9863-2.4004,5.623-4.1406,7.9394-5.2119l18.7188-26.3516l-5.8867,34.7725 c0.3808,1.7451,0.6816,3.7246,0.9082,5.9482c2.4511,0.7598,4.9453,1.4151,7.4609,2.0196c2.2988-3.0704,4.4316-5.419,6.4316-7.042 l11.2598-30.293l3.207,33.9873c1.0821,1.8135,2.1407,4.0088,3.1875,6.5947c1.3477,0.045,2.6895,0.1026,4.0469,0.1026 c1.3574,0,2.7012-0.0576,4.0469-0.1026c1.0469-2.5859,2.1074-4.7812,3.1894-6.5947l3.2051-33.9873l11.2598,30.293 c2,1.623,4.1347,3.9716,6.4336,7.042c2.5156-0.6045,5.0097-1.2598,7.4609-2.0196c0.2246-2.2236,0.5254-4.2031,0.9063-5.9482 l-5.8868-34.7725l18.7188,26.3516c2.3164,1.0713,4.9531,2.8115,7.9414,5.2119c2.2187-1.207,4.3769-2.5059,6.5098-3.8457 c-0.4258-2.5537-0.6641-4.8125-0.7169-6.7949l-14.3672-31.3653l25.5879,21.1768c2.252,0.5303,4.8593,1.4697,7.838,2.8086 c1.83-1.7197,3.6053-3.4961,5.326-5.3272c-1.3398-2.9785-2.2792-5.5859-2.8086-7.8378l-21.1757-25.5879l31.3691,14.3691 c1.9824,0.0527,4.2383,0.291,6.7891,0.7158c1.3418-2.1318,2.6406-4.292,3.8476-6.5107c-2.4005-2.9883-4.1406-5.625-5.213-7.9404 l-26.3514-18.7198l34.7734,5.8887c1.7441-0.3809,3.7246-0.6826,5.9473-0.9082c0.7597-2.4502,1.416-4.9453,2.0195-7.46 c-3.0703-2.2988-5.4199-4.4326-7.043-6.4336l-30.291-11.2587l33.9844-3.2061c1.8144-1.083,4.0098-2.1426,6.5976-3.1904 C586.0782,129.6086,586.1348,128.2658,586.1348,126.9084z"/><linearGradient id="SVGID_3_" gradientUnits="userSpaceOnUse" x1="466.1346" y1="6.9084" x2="466.1346" y2="246.9084"><stop offset="0" style="stop-color: rgb(255, 0, 0);"/><stop offset="1" style="stop-color: rgb(77, 0, 0);"/></linearGradient><path fill="url(#SVGID_3_)" d="M586.0587,123.6515l-70.3516-3.2695l66.5175-21.1787c0.1875-0.1431,0.3672-0.2852,0.5606-0.4297 c-0.4902-2.0391-1.0293-4.0586-1.6152-6.0586l-68.8419,15.0586l59.0587-37.8579c0.076-0.0947,0.1445-0.186,0.2226-0.2817 c-1.0215-1.8746-2.1152-3.7022-3.2363-5.5123l-62.5703,32.3492l47.4297-52.0537c-1.4922-1.5772-3.0294-3.1133-4.6055-4.607 l-52.0547,47.4302l32.3496-62.5703c-1.8086-1.1201-3.6367-2.2144-5.5117-3.2344c-0.0957,0.0772-0.1875,0.1465-0.2832,0.2222 L485.2696,80.715l15.0586-68.8413c-2-0.5854-4.0196-1.1255-6.0586-1.6157c-0.1446,0.1933-0.2871,0.3735-0.4297,0.561 l-21.1778,66.5171l-3.2695-70.3516c-1.082-0.038-2.166-0.0761-3.2578-0.0761s-2.1738,0.0381-3.2559,0.0761l-3.2695,70.3516 L438.4297,10.819c-0.1426-0.1875-0.2851-0.3677-0.4297-0.561c-2.039,0.4902-4.0586,1.0303-6.0586,1.6157L447,80.715 l-37.8574-59.0586c-0.0937-0.0757-0.1855-0.1445-0.2812-0.2217c-1.877,1.021-3.7032,2.1148-5.5137,3.2359l32.3496,62.5698 l-52.0547-47.4302c-1.5762,1.4942-3.1113,3.0298-4.6055,4.607l47.4297,52.0537L363.897,64.1217 c-1.1211,1.8101-2.2158,3.6377-3.2353,5.5123c0.0761,0.0957,0.1455,0.1875,0.2207,0.2822l59.059,37.8574L351.1001,92.715 c-0.5849,2-1.1259,4.0195-1.6162,6.0586c0.1934,0.145,0.3731,0.2866,0.5615,0.4302l66.5171,21.1782l-70.352,3.2695 c-0.0371,1.083-0.0762,2.1651-0.0762,3.2569c0,1.0918,0.0391,2.1748,0.0762,3.2568l70.352,3.2695l-66.5171,21.1787 c-0.1884,0.1436-0.3681,0.2852-0.5615,0.4297c0.4903,2.0391,1.0313,4.0586,1.6162,6.0586l68.8413-15.0586l-59.059,37.8575 c-0.0752,0.0947-0.1446,0.1865-0.2207,0.2822c1.0195,1.875,2.1132,3.7031,3.2343,5.5127l62.5708-32.3496l-47.4297,52.0547 c1.4922,1.5761,3.0293,3.1123,4.6055,4.6064l52.0547-47.4307l-32.3496,62.5704c1.8105,1.121,3.6367,2.2148,5.5137,3.2353 c0.0957-0.0771,0.1875-0.1465,0.2812-0.2217L447,173.1017l-15.0586,68.8408c2,0.586,4.0196,1.126,6.0606,1.6163 c0.1445-0.1924,0.2851-0.3721,0.4277-0.5586l21.1797-66.5196l3.2695,70.3516c1.0821,0.0381,2.1641,0.0762,3.2559,0.0762 s2.1738-0.0381,3.2578-0.0762l3.2695-70.3516l21.1778,66.5196c0.1426,0.1865,0.2851,0.3662,0.4297,0.5586 c2.039-0.4903,4.0586-1.0303,6.0586-1.6163l-15.0586-68.8408l37.8574,59.0586c0.0957,0.0762,0.1875,0.1446,0.2832,0.2217 c1.875-1.0205,3.7031-2.1143,5.5117-3.2353l-32.3496-62.5704l52.0547,47.4307c1.5762-1.4941,3.1133-3.0293,4.6074-4.6064 l-47.4316-52.0547l62.5703,32.3496c1.1211-1.8096,2.2148-3.6377,3.2363-5.5127c-0.0781-0.0957-0.1465-0.1875-0.2226-0.2822 l-59.0587-37.8575l68.8419,15.0586c0.5859-2,1.125-4.0195,1.6152-6.0586c-0.1934-0.1445-0.3731-0.2861-0.5606-0.4297 l-66.5175-21.1787l70.3516-3.2695c0.0391-1.082,0.0762-2.165,0.0762-3.2568 C586.1348,125.8166,586.0977,124.7345,586.0587,123.6515z"/><g><linearGradient id="SVGID_4_" gradientUnits="userSpaceOnUse" x1="390.1205" y1="50.8942" x2="542.1489" y2="202.9226"><stop offset="0" style="stop-color: rgb(255, 0, 0);"/><stop offset="1" style="stop-color: rgb(51, 0, 0);"/></linearGradient><circle fill="url(#SVGID_4_)" cx="466.1346" cy="126.9084" r="107.5002"/><linearGradient id="SVGID_5_" gradientUnits="userSpaceOnUse" x1="390.924" y1="51.6977" x2="541.3454" y2="202.1191"><stop offset="0" style="stop-color: rgb(255, 0, 0);"/><stop offset="1" style="stop-color: rgb(65, 0, 0);"/></linearGradient><circle fill="url(#SVGID_5_)" cx="466.1346" cy="126.9084" r="106.3639"/><linearGradient id="SVGID_6_" gradientUnits="userSpaceOnUse" x1="391.7275" y1="52.5012" x2="540.5418" y2="201.3155"><stop offset="0" style="stop-color: rgb(255, 0, 0);"/><stop offset="1" style="stop-color: rgb(79, 0, 0);"/></linearGradient><circle fill="url(#SVGID_6_)" cx="466.1346" cy="126.9084" r="105.2275"/><linearGradient id="SVGID_7_" gradientUnits="userSpaceOnUse" x1="392.5311" y1="53.3047" x2="539.7383" y2="200.5119"><stop offset="0" style="stop-color: rgb(255, 0, 0);"/><stop offset="1" style="stop-color: rgb(93, 0, 0);"/></linearGradient><circle fill="url(#SVGID_7_)" cx="466.1346" cy="126.9084" r="104.0912"/><linearGradient id="SVGID_8_" gradientUnits="userSpaceOnUse" x1="393.3346" y1="54.1082" x2="538.9348" y2="199.7083"><stop offset="0" style="stop-color: rgb(255, 0, 0);"/><stop offset="1" style="stop-color: rgb(107, 0, 0);"/></linearGradient><circle fill="url(#SVGID_8_)" cx="466.1346" cy="126.9084" r="102.9548"/><linearGradient id="SVGID_9_" gradientUnits="userSpaceOnUse" x1="394.1382" y1="54.9117" x2="538.1312" y2="198.9048"><stop offset="0" style="stop-color: rgb(255, 0, 0);"/><stop offset="1" style="stop-color: rgb(121, 0, 0);"/></linearGradient><circle fill="url(#SVGID_9_)" cx="466.1346" cy="126.9084" r="101.8184"/><linearGradient id="SVGID_10_" gradientUnits="userSpaceOnUse" x1="394.9417" y1="55.7153" x2="537.3277" y2="198.1012"><stop offset="0" style="stop-color: rgb(255, 0, 0);"/><stop offset="1" style="stop-color: rgb(134, 0, 0);"/></linearGradient><circle fill="url(#SVGID_10_)" cx="466.1346" cy="126.9084" r="100.6821"/><linearGradient id="SVGID_11_" gradientUnits="userSpaceOnUse" x1="395.7453" y1="56.5188" x2="536.5241" y2="197.2976"><stop offset="0" style="stop-color: rgb(255, 0, 0);"/><stop offset="1" style="stop-color: rgb(148, 0, 0);"/></linearGradient><circle fill="url(#SVGID_11_)" cx="466.1346" cy="126.9084" r="99.5457"/><linearGradient id="SVGID_12_" gradientUnits="userSpaceOnUse" x1="396.5488" y1="57.3223" x2="535.7206" y2="196.4941"><stop offset="0" style="stop-color: rgb(255, 0, 0);"/><stop offset="1" style="stop-color: rgb(162, 0, 0);"/></linearGradient><circle fill="url(#SVGID_12_)" cx="466.1346" cy="126.9084" r="98.4093"/><linearGradient id="SVGID_13_" gradientUnits="userSpaceOnUse" x1="397.3524" y1="58.1258" x2="534.9171" y2="195.6905"><stop offset="0" style="stop-color: rgb(255, 0, 0);"/><stop offset="1" style="stop-color: rgb(176, 0, 0);"/></linearGradient><circle fill="url(#SVGID_13_)" cx="466.1346" cy="126.9084" r="97.273"/><linearGradient id="SVGID_14_" gradientUnits="userSpaceOnUse" x1="398.1559" y1="58.9293" x2="534.1135" y2="194.8869"><stop offset="0" style="stop-color: rgb(255, 0, 0);"/><stop offset="1" style="stop-color: rgb(190, 0, 0);"/></linearGradient><circle fill="url(#SVGID_14_)" cx="466.1346" cy="126.9084" r="96.1366"/><linearGradient id="SVGID_15_" gradientUnits="userSpaceOnUse" x1="398.9594" y1="59.7328" x2="533.3099" y2="194.0834"><stop offset="0" style="stop-color: rgb(255, 0, 0);"/><stop offset="1" style="stop-color: rgb(204, 0, 0);"/></linearGradient><circle fill="url(#SVGID_15_)" cx="466.1346" cy="126.9084" r="95.0002"/></g></g><linearGradient id="SVGID_16_" gradientUnits="userSpaceOnUse" x1="393.5529" y1="54.4515" x2="467.7637" y2="128.6623"><stop offset="0" style="stop-color: rgb(255, 255, 255); stop-opacity: 0.5;"/><stop offset="1" style="stop-color: rgb(255, 255, 255); stop-opacity: 0;"/></linearGradient><path fill="url(#SVGID_16_)" d="M371.2632,132.1623c0-55.2285,44.772-100,100.0005-100c25.834,0,49.377,9.7969,67.1231,25.8769 c-18.2969-20.1928-44.7286-32.8769-74.1231-32.8769c-55.2285,0-100.0005,44.7715-100.0005,100 c0,29.3955,12.6841,55.8271,32.8775,74.123C381.0606,181.5402,371.2632,157.9953,371.2632,132.1623z" id="object-0"/></g></g></svg>