<?xml version="1.0" standalone="no"?>
<!DOCTYPE svg PUBLIC "-//W3C//DTD SVG 20010904//EN"
 "http://www.w3.org/TR/2001/REC-SVG-20010904/DTD/svg10.dtd">
<svg version="1.0" xmlns="http://www.w3.org/2000/svg"
 width="1727.000000pt" height="1036.000000pt" viewBox="0 0 1727.000000 1036.000000"
 preserveAspectRatio="xMidYMid meet">
<metadata>
Created by potrace 1.16, written by Peter Selinger 2001-2019
</metadata>
<g transform="translate(0.000000,1036.000000) scale(0.100000,-0.100000)"
fill="#ffffff" stroke="none">
<path d="M5305 9709 c-296 -14 -681 -77 -955 -155 -770 -218 -1505 -653 -1968
-1164 -362 -399 -604 -825 -688 -1210 -15 -67 -19 -125 -18 -275 0 -173 3
-199 27 -290 53 -196 137 -337 285 -476 132 -124 300 -213 499 -266 84 -22
126 -26 293 -30 354 -9 591 43 878 192 140 73 245 150 373 273 196 188 313
350 434 597 151 311 199 538 200 950 0 193 -4 259 -19 340 -58 310 -194 490
-431 571 -70 24 -99 28 -237 32 -166 5 -249 -5 -352 -39 -60 -21 -81 -19 -55
5 25 23 371 183 474 219 353 123 923 245 1272 272 113 9 586 -20 818 -51 94
-12 288 -44 363 -60 36 -7 26 -20 -40 -52 -35 -16 -112 -62 -173 -102 -579
-383 -1237 -1128 -1674 -1895 -50 -88 -308 -592 -573 -1120 -477 -952 -620
-1219 -806 -1509 -299 -466 -545 -730 -787 -847 -185 -89 -376 -127 -580 -115
-422 26 -754 208 -755 414 0 83 69 121 319 177 90 20 186 42 212 49 114 30
242 142 298 261 50 106 65 182 65 335 0 125 -2 141 -30 222 -72 201 -236 347
-461 409 -69 19 -96 21 -228 16 -132 -4 -160 -8 -236 -34 -124 -43 -212 -96
-305 -185 -97 -93 -167 -191 -229 -320 -88 -183 -122 -362 -111 -583 14 -316
109 -550 305 -757 244 -257 602 -414 1046 -459 132 -13 479 -7 630 11 847 100
1504 452 2054 1100 213 251 328 430 515 800 169 335 471 1001 537 1185 9 27
21 50 26 52 4 1 17 -12 28 -30 64 -100 241 -133 477 -87 181 35 227 26 272
-54 47 -82 60 -163 61 -386 0 -215 -9 -304 -51 -494 -80 -355 -263 -757 -527
-1151 -189 -284 -388 -469 -545 -510 -79 -21 -130 -18 -177 8 -79 45 -111 134
-103 291 11 203 116 380 365 613 329 307 349 334 340 435 -10 114 -71 169
-196 176 -217 12 -450 -139 -649 -422 -207 -293 -310 -509 -343 -719 -15 -94
-5 -280 20 -379 51 -199 167 -346 341 -432 148 -72 315 -106 526 -106 440 0
839 140 1217 427 122 93 407 375 460 456 21 31 42 55 46 52 5 -2 4 -26 -2 -52
-7 -34 -6 -86 2 -176 25 -273 116 -438 284 -518 87 -41 155 -52 282 -47 128 6
232 36 387 114 204 103 463 306 686 538 81 84 109 104 98 69 -22 -76 -11 -216
24 -319 67 -193 234 -354 424 -409 82 -24 216 -24 286 0 269 89 574 348 1026
870 386 446 486 712 300 796 -48 22 -96 23 -146 5 -85 -30 -164 -99 -476 -413
-176 -178 -326 -323 -332 -323 -42 0 -36 142 13 335 51 198 148 492 195 591
49 101 49 101 462 445 592 492 912 781 1158 1047 63 68 96 98 98 88 2 -9 -12
-38 -31 -64 -79 -108 -281 -499 -449 -872 -153 -339 -326 -805 -363 -976 -9
-43 -32 -127 -51 -186 -62 -196 -104 -477 -104 -690 1 -216 49 -344 181 -483
119 -125 252 -185 414 -188 212 -3 438 132 784 468 140 136 387 410 438 485
46 69 68 68 39 -1 -50 -123 -11 -355 89 -518 46 -77 166 -205 221 -237 51 -30
55 -41 17 -50 -37 -10 -305 -134 -423 -197 -753 -400 -1133 -827 -1157 -1302
-12 -234 51 -402 206 -553 182 -177 427 -260 726 -249 212 8 358 45 560 142
597 286 1201 1005 1841 2189 59 108 59 108 144 141 322 124 710 354 1060 629
176 138 315 259 555 487 267 251 351 336 343 345 -4 3 -170 -22 -369 -56 -333
-56 -366 -64 -395 -88 -18 -15 -99 -84 -181 -155 -171 -146 -328 -270 -457
-360 -49 -34 -121 -86 -160 -114 -98 -73 -112 -69 -52 14 60 85 402 689 694
1230 161 295 367 705 434 862 55 129 113 320 100 333 -5 5 -53 18 -108 29
-145 30 -535 39 -655 15 -98 -20 -195 -62 -256 -112 -68 -56 -150 -191 -220
-364 -35 -85 -98 -220 -139 -299 -188 -358 -639 -1071 -905 -1428 -145 -195
-278 -328 -260 -262 2 8 11 54 21 102 42 201 139 448 364 925 109 232 232 465
317 601 59 93 59 93 59 200 -1 367 -166 596 -464 641 -134 20 -262 -14 -400
-108 -132 -90 -139 -70 -12 38 79 67 345 353 531 570 391 457 833 1093 1044
1503 111 218 171 495 142 662 -41 233 -221 341 -566 339 -217 -2 -375 -41
-595 -145 -272 -130 -561 -342 -834 -612 -76 -75 -141 -135 -144 -133 -2 3 8
29 22 58 36 74 65 194 77 319 17 182 -13 291 -107 379 -103 98 -229 135 -454
134 -98 0 -172 -6 -230 -18 -390 -82 -785 -327 -1239 -771 -326 -319 -599
-639 -940 -1104 -599 -815 -1050 -1618 -1378 -2451 -46 -118 -88 -225 -93
-238 -5 -12 -18 -22 -27 -22 -24 0 -87 -42 -141 -94 -64 -60 -167 -192 -284
-362 -98 -144 -271 -344 -285 -331 -3 4 10 42 29 84 20 43 63 143 96 223 33
80 81 195 108 255 93 212 425 863 594 1163 93 167 168 308 165 313 -4 5 -248
9 -600 9 -595 0 -595 0 -609 -22 -8 -13 -113 -252 -234 -533 -154 -357 -243
-550 -297 -643 -42 -74 -85 -153 -95 -177 -28 -65 -45 -69 -34 -9 17 92 11
449 -10 554 -54 283 -173 518 -355 701 -97 96 -186 167 -261 206 -27 14 -50
29 -50 34 0 4 14 10 31 14 69 15 335 135 473 212 208 117 348 218 492 355 248
238 396 512 451 838 19 117 22 377 4 480 -40 233 -122 417 -266 597 -59 74
-182 191 -230 219 -22 12 -12 34 14 34 27 0 133 72 168 115 17 20 36 57 42 82
11 41 9 49 -28 127 -39 84 -39 84 -103 95 -125 22 -207 10 -527 -76 -143 -38
-178 -45 -200 -36 -14 6 -68 30 -119 52 -336 149 -776 247 -1217 271 -198 11
-248 11 -470 -1z m7665 -729 c12 -22 -14 -107 -77 -255 -164 -385 -576 -941
-1236 -1670 -253 -279 -1051 -1075 -1079 -1075 -14 0 -9 12 31 74 21 34 71
122 111 196 262 484 742 1222 1120 1725 213 283 356 451 540 635 223 222 362
324 510 371 71 22 68 22 80 -1z m2040 -1 c27 -49 -124 -387 -285 -639 -170
-266 -364 -519 -698 -913 -332 -389 -811 -897 -1103 -1167 -99 -91 -205 -191
-236 -224 -31 -32 -62 -56 -68 -54 -6 2 3 24 21 53 18 28 64 109 102 180 284
527 820 1348 1208 1851 186 241 317 393 474 549 213 212 364 321 504 366 72
22 69 22 81 -2z m-7917 -206 c67 -145 89 -290 75 -510 -31 -475 -328 -1203
-613 -1498 -155 -161 -282 -195 -530 -144 -73 15 -147 23 -221 23 -112 1 -112
1 -99 27 8 14 73 174 146 355 158 396 214 525 328 754 215 432 419 725 644
928 95 85 209 162 223 151 6 -5 27 -44 47 -86z m-4310 -676 c-4 -7 -29 -46
-55 -87 -161 -246 -266 -606 -288 -980 -8 -145 -8 -145 37 -327 28 -113 50
-183 58 -183 6 0 70 46 141 101 154 121 394 282 673 451 204 123 204 123 236
253 18 72 49 175 70 230 55 147 188 411 240 478 41 52 88 88 99 76 10 -10 -15
-287 -34 -382 -67 -332 -247 -662 -499 -917 -265 -266 -539 -390 -871 -393
-106 -1 -120 1 -175 26 -82 38 -119 69 -163 135 -51 77 -70 122 -87 204 -54
254 39 575 257 895 98 144 346 445 359 437 5 -3 6 -11 2 -17z m10146 -2498
c-17 -28 -38 -76 -45 -107 -13 -56 -13 -57 16 -103 40 -61 55 -73 116 -95 49
-17 53 -17 99 0 62 24 182 105 255 173 32 29 61 49 65 44 3 -6 -10 -32 -29
-58 -45 -63 -340 -578 -384 -670 -19 -40 -36 -73 -38 -73 -2 0 -20 11 -40 25
-138 94 -284 3 -682 -428 -89 -96 -193 -200 -232 -232 -77 -63 -83 -63 -96 2
-21 112 177 795 273 939 17 25 160 152 348 309 176 147 338 285 359 308 50 54
59 34 15 -34z m625 -2676 c-10 -16 -54 -93 -98 -173 -491 -896 -870 -1352
-1143 -1377 -261 -24 -349 200 -199 502 121 241 370 474 801 746 113 72 610
327 639 328 18 1 18 0 0 -26z"/>
<path d="M9181 7599 c-195 -33 -460 -171 -537 -281 -57 -81 -59 -92 -59 -358
1 -209 3 -250 18 -282 43 -93 140 -158 274 -184 108 -20 298 -18 413 6 223 46
326 145 376 365 26 111 26 344 1 435 -50 184 -151 276 -330 300 -87 11 -81 11
-156 -1z"/>
<path d="M6165 1799 c-49 -6 -95 -15 -101 -22 -14 -15 2 -217 19 -234 8 -8 27
-9 62 -2 90 15 346 22 427 10 134 -19 235 -78 278 -161 40 -77 43 -108 49
-480 6 -365 6 -365 166 -365 160 0 160 0 163 325 3 349 -6 485 -39 582 -54
162 -186 273 -393 331 -60 16 -108 20 -306 22 -129 2 -275 -1 -325 -6z"/>
<path d="M9839 1791 c-103 -33 -218 -127 -286 -234 -26 -41 -43 -41 -44 1 0
15 -12 70 -27 122 -27 95 -27 95 -175 98 -81 1 -147 -1 -147 -6 0 -5 45 -144
101 -308 101 -299 101 -299 75 -384 -31 -103 -116 -482 -116 -516 0 -24 0 -24
165 -24 162 0 166 0 175 23 5 12 28 128 50 257 84 486 138 633 253 691 30 16
53 20 90 16 133 -12 168 -117 171 -497 1 -205 1 -205 -149 -210 -150 -5 -150
-5 -150 -140 0 -135 0 -135 313 -138 314 -2 314 -2 309 390 -3 364 -5 399 -26
477 -53 207 -163 339 -320 385 -72 21 -191 20 -262 -3z"/>
<path d="M7485 1558 c10 -377 32 -530 98 -671 117 -250 330 -377 632 -377 191
0 343 49 474 153 191 152 233 277 286 859 26 284 40 258 -139 258 -85 0 -157
-4 -160 -9 -4 -5 -13 -103 -21 -218 -27 -366 -48 -491 -105 -603 -29 -57 -86
-117 -137 -144 -34 -17 -168 -46 -215 -46 -61 0 -164 35 -218 75 -49 36 -110
114 -110 141 0 7 28 14 75 18 209 19 361 127 411 294 15 47 47 468 38 484 -3
4 -74 8 -158 8 -153 0 -153 0 -160 -46 -3 -26 -6 -77 -6 -113 0 -97 -18 -237
-36 -279 -30 -72 -111 -131 -180 -132 -31 0 -31 0 -37 98 -4 53 -7 160 -7 238
0 78 -3 162 -6 188 -7 46 -7 46 -166 46 -159 0 -159 0 -153 -222z"/>
<path d="M6070 1191 c-11 -21 -15 -607 -4 -635 9 -24 319 -24 328 0 11 28 7
614 -4 635 -10 17 -23 19 -160 19 -137 0 -150 -2 -160 -19z"/>
</g>
</svg>
